<svg width="4686" height="1563" viewBox="0 0 4686 1563" fill="none" xmlns="http://www.w3.org/2000/svg">
<path d="M4355.88 5C3994.08 59.7289 3426.86 170.486 3715.43 520.12C4082.65 965.053 4980.04 848.493 4581.48 1191.91" stroke="white" stroke-width="8.2894"/>
<path d="M4254.88 85.7598C3893.09 140.489 3325.86 251.246 3614.43 600.88C3981.66 1045.81 4879.04 929.253 4480.48 1272.67" stroke="white" stroke-width="8.2894"/>
<path d="M4149.09 160.125C3787.3 214.854 3220.07 325.611 3508.64 675.245C3875.86 1120.18 4773.25 1003.62 4374.69 1347.03" stroke="white" stroke-width="8.2894"/>
<path d="M4037.98 226.285C3676.19 281.014 3108.96 391.772 3397.53 741.405C3764.76 1186.34 4662.14 1069.78 4263.58 1413.19" stroke="white" stroke-width="8.2894"/>
<path d="M3921.33 282.094C3559.54 336.823 2992.31 447.581 3280.88 797.214C3648.11 1242.15 4545.49 1125.59 4146.93 1469" stroke="white" stroke-width="8.2894"/>
<path d="M3799.48 325.388C3437.68 380.117 2870.46 490.874 3159.03 840.508C3526.25 1285.44 4423.64 1168.88 4025.08 1512.29" stroke="white" stroke-width="8.2894"/>
<path d="M3673.52 354.638C3311.72 409.367 2744.49 520.125 3033.06 869.758C3400.29 1314.69 4297.68 1198.13 3899.12 1541.54" stroke="white" stroke-width="8.2894"/>
<path d="M3545.08 369.708C3183.29 424.437 2616.06 535.194 2904.63 884.828C3271.86 1329.76 4169.24 1213.2 3770.68 1556.61" stroke="white" stroke-width="8.2894"/>
<path d="M3415.79 372.093C3053.99 426.822 2486.77 537.58 2775.34 887.213C3142.56 1332.15 4039.95 1215.59 3641.39 1559" stroke="white" stroke-width="8.2894"/>
<path d="M3286.7 364.431C2924.91 419.16 2357.68 529.918 2646.25 879.551C3013.48 1324.48 3910.86 1207.92 3512.3 1551.34" stroke="white" stroke-width="8.2894"/>
<path d="M3158.23 349.689C2796.44 404.418 2229.21 515.175 2517.78 864.809C2885 1309.74 3782.39 1193.18 3383.83 1536.6" stroke="white" stroke-width="8.2894"/>
<path d="M3030.33 330.593C2668.54 385.321 2101.31 496.079 2389.88 845.713C2757.11 1290.65 3654.49 1174.09 3255.93 1517.5" stroke="white" stroke-width="8.2894"/>
<path d="M2902.77 309.389C2540.97 364.118 1973.75 474.876 2262.32 824.509C2629.54 1269.44 3526.93 1152.88 3128.37 1496.3" stroke="white" stroke-width="8.2894"/>
<path d="M2775.26 287.83C2413.47 342.559 1846.24 453.316 2134.81 802.95C2502.04 1247.88 3399.42 1131.32 3000.86 1474.74" stroke="white" stroke-width="8.2894"/>
<path d="M2647.6 267.234C2285.81 321.963 1718.58 432.721 2007.15 782.354C2374.37 1227.29 3271.76 1110.73 2873.2 1454.14" stroke="white" stroke-width="8.2894"/>
<path d="M2519.64 248.569C2157.84 303.298 1590.62 414.056 1879.19 763.689C2246.41 1208.62 3143.8 1092.06 2745.24 1435.48" stroke="white" stroke-width="8.2894"/>
<path d="M2391.33 232.523C2029.53 287.252 1462.3 398.01 1750.87 747.643C2118.1 1192.58 3015.48 1076.02 2616.93 1419.43" stroke="white" stroke-width="8.2894"/>
<path d="M2262.66 219.563C1900.87 274.292 1333.64 385.049 1622.21 734.683C1989.43 1179.62 2886.82 1063.06 2488.26 1406.47" stroke="white" stroke-width="8.2894"/>
<path d="M2132.91 209.863C1771.11 264.592 1203.88 375.35 1492.45 724.983C1859.68 1169.92 2757.07 1053.36 2358.51 1396.77" stroke="white" stroke-width="8.2894"/>
<path d="M2003.81 202.397C1642.01 257.126 1074.78 367.884 1363.35 717.517C1730.58 1162.45 2627.97 1045.89 2229.41 1389.3" stroke="white" stroke-width="8.2894"/>
<path d="M1874.61 196.797C1512.82 251.526 945.589 362.283 1234.16 711.917C1601.39 1156.85 2498.77 1040.29 2100.21 1383.7" stroke="white" stroke-width="8.2894"/>
<path d="M1745.35 193.317C1383.55 248.046 816.321 358.804 1104.89 708.437C1472.12 1153.37 2369.5 1036.81 1970.95 1380.22" stroke="white" stroke-width="8.2894"/>
<path d="M1616.04 192.28C1254.24 247.009 687.011 357.766 975.582 707.4C1342.81 1152.33 2240.19 1035.77 1841.64 1379.19" stroke="white" stroke-width="8.2894"/>
<path d="M1486.73 194.094C1124.94 248.823 557.709 359.581 846.28 709.214C1213.51 1154.15 2110.89 1037.59 1712.33 1381" stroke="white" stroke-width="8.2894"/>
<path d="M1357.52 199.299C995.727 254.028 428.499 364.785 717.069 714.419C1084.3 1159.35 1981.68 1042.79 1583.12 1386.21" stroke="white" stroke-width="8.2894"/>
<path d="M1228.54 208.622C866.749 263.351 299.52 374.108 588.091 723.742C955.318 1168.68 1852.7 1052.12 1454.14 1395.53" stroke="white" stroke-width="8.2894"/>
<path d="M1100.04 223.087C738.244 277.816 171.015 388.573 459.586 738.207C826.813 1183.14 1724.2 1066.58 1325.64 1409.99" stroke="white" stroke-width="8.2894"/>
<path d="M972.447 244.169C610.652 298.898 43.423 409.656 331.994 759.289C699.22 1204.22 1596.61 1087.66 1198.05 1431.08" stroke="white" stroke-width="8.2894"/>
<path d="M846.65 273.976C484.854 328.705 -82.3742 439.462 206.197 789.096C573.423 1234.03 1470.81 1117.47 1072.25 1460.88" stroke="white" stroke-width="8.2894"/>
<path d="M724.538 313.735C362.742 368.464 -204.486 479.221 84.0845 828.855C451.311 1273.79 1348.7 1157.23 950.138 1500.64" stroke="white" stroke-width="8.2894"/>
</svg>
